<?xml version="1.0" encoding="utf-8"?>
<!-- Generator: Adobe Illustrator 27.9.0, SVG Export Plug-In . SVG Version: 6.00 Build 0)  -->
<svg version="1.1" id="图层_1" xmlns="http://www.w3.org/2000/svg" xmlns:xlink="http://www.w3.org/1999/xlink" x="0px" y="0px"
	 viewBox="0 0 24 24" style="enable-background:new 0 0 24 24;" xml:space="preserve">
<path d="M18.8,6c0-0.2,0-0.4-0.1-0.6c-0.1-0.2-0.4-0.3-0.6-0.3h-7.7c-0.5,0-0.8,0.4-0.8,0.8v3.5H5.9c-0.5,0-0.8,0.4-0.8,0.8V18
	c0,0.5,0.4,0.8,0.8,0.8h7.7c0.5,0,0.8-0.4,0.8-0.8v-3.5H18c0.5,0,0.8-0.4,0.8-0.8L18.8,6z M7,17v-5.6h5.6V17H7z M13.7,9.5h-2.3V7H17
	v5.6h-2.5v-2.3C14.5,9.8,14.1,9.5,13.7,9.5z"/>
</svg>
