<?xml version="1.0" encoding="utf-8"?>
<!-- Generator: Adobe Illustrator 27.9.0, SVG Export Plug-In . SVG Version: 6.00 Build 0)  -->
<svg version="1.1" id="图层_1" xmlns="http://www.w3.org/2000/svg" xmlns:xlink="http://www.w3.org/1999/xlink" x="0px" y="0px"
	 viewBox="0 0 24 24" style="enable-background:new 0 0 24 24;" xml:space="preserve">
<style type="text/css">
	.st0{fill-rule:evenodd;clip-rule:evenodd;}
</style>
<path class="st0" d="M18.2,18.2c-0.2,0.2-0.5,0.3-0.8,0.3c-0.3,0-0.7-0.1-0.9-0.3l-4.4-4.4l-4.5,4.5c-0.5,0.5-1.3,0.4-1.7,0
	c-0.2-0.2-0.3-0.6-0.3-0.9c0-0.3,0.1-0.6,0.3-0.9l4.5-4.5L5.9,7.6c-0.5-0.5-0.4-1.3,0-1.7c0.3-0.2,0.6-0.3,0.9-0.3
	c0.3,0,0.6,0.1,0.9,0.4l4.4,4.4l4.5-4.5c0.5-0.5,1.3-0.4,1.7,0c0.2,0.3,0.3,0.6,0.3,0.9s-0.1,0.6-0.4,0.9l-4.4,4.4l4.4,4.4
	C18.8,17,18.7,17.8,18.2,18.2z"/>
</svg>
