<?xml version="1.0" encoding="utf-8"?>
<!-- Generator: Adobe Illustrator 21.0.0, SVG Export Plug-In . SVG Version: 6.00 Build 0)  -->
<svg version="1.1" id="图层_1" xmlns="http://www.w3.org/2000/svg" xmlns:xlink="http://www.w3.org/1999/xlink" x="0px" y="0px"
	 viewBox="0 0 24 24" style="enable-background:new 0 0 24 24;" xml:space="preserve">
<g id="System__x2F__Data">
	<g id="Vector">
		<path d="M12,21.8c-1.9,0-3.7-0.4-5.1-1.1c-1.6-0.8-2.5-1.9-2.5-3.2V6.5c0-1.3,0.9-2.4,2.5-3.2c1.4-0.7,3.2-1.1,5.1-1.1
			s3.7,0.4,5.1,1.1c1.6,0.8,2.5,1.9,2.5,3.2v11.1c0,1.3-0.9,2.4-2.5,3.2C15.7,21.4,13.9,21.8,12,21.8z M6.3,14.9v2.7
			c0,0.5,0.5,1.1,1.4,1.5c1.1,0.6,2.7,0.9,4.3,0.9s3.2-0.3,4.3-0.9c0.9-0.4,1.4-1,1.4-1.5v-2.7c-0.2,0.1-0.4,0.2-0.6,0.3
			c-1.4,0.7-3.2,1.1-5.1,1.1s-3.7-0.4-5.1-1.1C6.7,15.1,6.5,15,6.3,14.9z M6.3,12c0,0.5,0.5,1.1,1.4,1.5c1.1,0.6,2.7,0.9,4.3,0.9
			c1.6,0,3.2-0.3,4.3-0.9c0.9-0.4,1.4-1,1.4-1.5V9.3c-0.2,0.1-0.4,0.2-0.6,0.3c-1.4,0.7-3.2,1.1-5.1,1.1s-3.7-0.4-5.1-1.1
			C6.7,9.6,6.5,9.5,6.3,9.3V12z M6.3,6.5C6.3,7,6.8,7.5,7.7,8c1.1,0.6,2.7,0.9,4.3,0.9s3.2-0.3,4.3-0.9c0.9-0.4,1.4-1,1.4-1.5
			c0-0.5-0.5-1.1-1.4-1.5c-1.1-0.6-2.7-0.9-4.3-0.9S8.8,4.4,7.7,5C6.8,5.4,6.3,6,6.3,6.5z"/>
	</g>
</g>
</svg>
