<?xml version="1.0" encoding="utf-8"?>
<!-- Generator: Adobe Illustrator 21.0.0, SVG Export Plug-In . SVG Version: 6.00 Build 0)  -->
<svg version="1.1" id="Capa_1" xmlns:svg="http://www.w3.org/2000/svg"
	 xmlns="http://www.w3.org/2000/svg" xmlns:xlink="http://www.w3.org/1999/xlink" x="0px" y="0px" viewBox="0 0 18.1 23.3"
	 style="enable-background:new 0 0 18.1 23.3;" xml:space="preserve">
<g id="g1">
	<path id="path1" d="M17.5,9.1L17.5,9.1c0-0.1,0-0.2-0.1-0.2l0-0.1l0,0c0-0.1-0.1-0.1-0.1-0.2l0,0L9.8,1.1C9.7,1,9.6,0.9,9.4,0.8
		l-0.1,0c-0.1,0-0.1,0-0.2,0l-0.1,0h-5c-1.9,0-3.5,1.6-3.5,3.5v14.8c0,1.9,1.6,3.5,3.5,3.5H14c1.9,0,3.5-1.6,3.5-3.5L17.5,9.1
		L17.5,9.1z M7.6,16.2C8,16.5,8,17,7.6,17.4c-0.2,0.2-0.4,0.2-0.6,0.2c-0.2,0-0.4-0.1-0.6-0.2l-2.1-2.1c-0.3-0.3-0.3-0.8,0-1.2
		l2.3-2.3c0.3-0.3,0.8-0.3,1.2,0c0.3,0.3,0.3,0.8,0,1.2l-1.7,1.7L7.6,16.2z M13.7,15.1l-2.3,2.3c-0.2,0.2-0.4,0.2-0.6,0.2
		c-0.2,0-0.4-0.1-0.6-0.2c-0.3-0.3-0.3-0.8,0-1.2l1.7-1.7L10.4,13c-0.3-0.3-0.3-0.8,0-1.2c0.3-0.3,0.8-0.3,1.2,0l2.1,2.1
		C14,14.3,14,14.8,13.7,15.1z"/>
</g>
</svg>
