<?xml version="1.0" encoding="utf-8"?>
<!-- Generator: Adobe Illustrator 21.0.0, SVG Export Plug-In . SVG Version: 6.00 Build 0)  -->
<svg version="1.1" id="图层_1" xmlns="http://www.w3.org/2000/svg" xmlns:xlink="http://www.w3.org/1999/xlink" x="0px" y="0px"
	 viewBox="0 0 18.4 22.3" style="enable-background:new 0 0 18.4 22.3;" xml:space="preserve">
<style type="text/css">
	.st0{display:none;opacity:0.3;}
	.st1{display:inline;}
	.st2{display:none;}
</style>
<g id="Capa_1" xmlns:svg="http://www.w3.org/2000/svg" class="st0">
	<g id="g1" class="st1">
		<path id="path1" d="M17.7,8.6L17.7,8.6c0-0.1,0-0.2-0.1-0.2V8.3l0,0c0-0.1-0.1-0.1-0.1-0.2l0,0L10,0.6C9.9,0.5,9.8,0.4,9.6,0.3
			H9.5c-0.1,0-0.1,0-0.2,0H9.2h-5c-1.9,0-3.5,1.6-3.5,3.5v14.8c0,1.9,1.6,3.5,3.5,3.5h10c1.9,0,3.5-1.6,3.5-3.5V8.6L17.7,8.6z
			 M7.8,15.7c0.4,0.3,0.4,0.8,0,1.2c-0.2,0.2-0.4,0.2-0.6,0.2S6.8,17,6.6,16.9l-2.1-2.1c-0.3-0.3-0.3-0.8,0-1.2l2.3-2.3
			C7.1,11,7.6,11,8,11.3c0.3,0.3,0.3,0.8,0,1.2l-1.7,1.7L7.8,15.7z M13.9,14.6l-2.3,2.3c-0.2,0.2-0.4,0.2-0.6,0.2
			c-0.2,0-0.4-0.1-0.6-0.2c-0.3-0.3-0.3-0.8,0-1.2l1.7-1.7l-1.5-1.5c-0.3-0.3-0.3-0.8,0-1.2c0.3-0.3,0.8-0.3,1.2,0l2.1,2.1
			C14.2,13.8,14.2,14.3,13.9,14.6z"/>
	</g>
</g>
<g id="图层_2" class="st2">
	<g class="st1">
		<path d="M14.2,12L6,20.2c-0.2,0.3-0.6,0.4-0.9,0.4s-0.6-0.1-0.9-0.4c-0.5-0.5-0.5-1.3,0-1.8l7.3-7.3L4.2,3.8
			C3.7,3.3,3.7,2.5,4.2,2S5.5,1.5,6,2l8.2,8.2C14.7,10.8,14.7,11.5,14.2,12z"/>
	</g>
</g>
<g id="图层_2_x5F_复制" class="st2">
	<g class="st1">
		<path d="M4.2,12l8.2,8.2c0.2,0.3,0.6,0.4,0.9,0.4s0.6-0.1,0.9-0.4c0.5-0.5,0.5-1.3,0-1.8l-7.3-7.3l7.3-7.3c0.5-0.5,0.5-1.3,0-1.8
			s-1.3-0.5-1.8,0l-8.2,8.2C3.7,10.8,3.7,11.5,4.2,12z"/>
	</g>
</g>
<path id="search" class="st2" d="M17.4,18l-5.9-5.8c0.7-1,1.1-2.2,1.1-3.5c0-3.3-2.7-6-6-6s-6,2.7-6,6s2.7,6,6,6
	c1.3,0,2.5-0.4,3.5-1.1l5.8,5.9c0.2,0.2,0.5,0.3,0.7,0.3c0.3,0,0.5-0.1,0.7-0.3C17.8,19,17.8,18.4,17.4,18z M10.1,10.7
	c-0.2,0.3-0.4,0.6-0.6,0.8S9,11.9,8.7,12.1c-0.6,0.4-1.3,0.6-2,0.6c-2.2,0-4-1.8-4-4s1.8-4,4-4s4,1.8,4,4
	C10.7,9.4,10.5,10.1,10.1,10.7z"/>
<path d="M11,12.6c1.1-0.3,2-0.8,2.6-1.5c0.8-0.9,1.2-2,1.2-3.4c0-2.2-1-4.9-6-4.9H4.7c-0.4,0-0.6,0.1-0.8,0.3C3.7,3.3,3.5,3.5,3.5,4
	v15.2c0,0.4,0.2,0.7,0.3,0.8c0.4,0.4,1.3,0.4,1.7,0c0.1-0.1,0.3-0.4,0.3-0.8v-6.3h2.6l4,6.8c0.3,0.5,0.7,0.7,1.2,0.7h0.2
	c0.3,0,0.5-0.1,0.7-0.3c0.1-0.1,0.3-0.3,0.3-0.6c0-0.2-0.1-0.5-0.2-0.7L11,12.6z M12.5,7.7c0,1-0.3,1.8-0.9,2.3
	c-0.6,0.5-1.6,0.8-3,0.8H5.9V4.9h2.7c1.4,0,2.4,0.2,3,0.7C12.2,6,12.5,6.7,12.5,7.7z"/>
</svg>
