<?xml version="1.0" encoding="utf-8"?>
<!-- Generator: Adobe Illustrator 21.0.0, SVG Export Plug-In . SVG Version: 6.00 Build 0)  -->
<svg version="1.1" id="图层_1" xmlns="http://www.w3.org/2000/svg" xmlns:xlink="http://www.w3.org/1999/xlink" x="0px" y="0px"
	 viewBox="0 0 30 30" style="enable-background:new 0 0 30 30;" xml:space="preserve">
<style type="text/css">
	.st0{fill:#292D32;}
</style>
<g>
	<path class="st0" d="M27.2,11.1C27.2,11.1,27.2,11.1,27.2,11.1c0-0.1,0-0.2,0-0.2c-0.1-2.8-0.8-4.7-2.1-6c-1.4-1.4-3.6-2.1-6.7-2.1
		h-6.8c-3.1,0-5.3,0.7-6.7,2.1c-1.4,1.4-2.1,3.6-2.1,6.7v6.8c0,3.1,0.7,5.3,2.1,6.7c1.4,1.4,3.6,2.1,6.7,2.1h6.8
		c3.1,0,5.3-0.7,6.7-2.1c1.3-1.3,2-3.2,2.1-6c0-0.1,0-0.2,0-0.2c0,0,0,0,0,0c0-0.2,0-0.3,0-0.5v-6.8C27.2,11.5,27.2,11.3,27.2,11.1z
		 M6.2,6.2c0.9-0.9,2.1-1.4,4-1.5v5.5H4.7C4.8,8.3,5.3,7,6.2,6.2z M4.6,11.9h5.6v6.1H4.6V11.9z M6.2,23.8c-0.9-0.9-1.4-2.1-1.5-4
		h5.5v5.5C8.3,25.2,7,24.7,6.2,23.8z M18.1,25.4H12v-5.5h6.1V25.4z M18.1,18.1H12v-6.1h6.1V18.1z M18.1,10.2H12V4.6h6.1V10.2z
		 M19.9,4.7c1.8,0.2,3.1,0.7,4,1.5c0.9,0.9,1.4,2.1,1.5,4h-5.5V4.7z M23.8,23.8c-0.9,0.9-2.1,1.3-4,1.5v-5.5h5.5
		C25.2,21.7,24.7,23,23.8,23.8z M25.4,18.1h-5.5v-6.1h5.5V18.1z"/>
</g>
</svg>
