<?xml version="1.0" encoding="utf-8"?>
<!-- Generator: Adobe Illustrator 27.9.0, SVG Export Plug-In . SVG Version: 6.00 Build 0)  -->
<svg version="1.1" id="图层_1" xmlns="http://www.w3.org/2000/svg" xmlns:xlink="http://www.w3.org/1999/xlink" x="0px" y="0px"
	 viewBox="0 0 24 24" style="enable-background:new 0 0 24 24;" xml:space="preserve">
<g id="XMLID_224_">
	<path d="M12,15.6c-2,0-3.6-1.6-3.6-3.6S10,8.4,12,8.4s3.6,1.6,3.6,3.6S14,15.6,12,15.6z M12,10.4c-0.9,0-1.6,0.7-1.6,1.6
		s0.7,1.6,1.6,1.6s1.6-0.7,1.6-1.6S12.9,10.4,12,10.4z"/>
</g>
<g id="XMLID_242_">
	<path d="M12.6,21.4h-1.3c-1.3,0-2.3-1-2.3-2.3v-0.4c0-0.5-0.3-0.7-0.5-0.8c-0.1-0.1-0.5-0.2-0.9,0l-0.3,0.2
		c-1.1,0.6-2.5,0.3-3.1-0.8l-0.6-1.1c-0.6-1.1-0.3-2.5,0.8-3.1l0.3-0.2c0.4-0.2,0.5-0.7,0.5-0.8s0-0.6-0.5-0.8L4.3,11
		c-1.1-0.6-1.5-2-0.8-3.1l0.6-1.1c0.6-1.1,2-1.5,3.1-0.8l0.3,0.2c0.4,0.2,0.8,0.1,0.9,0C8.7,6,9.1,5.7,9.1,5.2V4.9
		c0-1.3,1-2.3,2.3-2.3h1.3c1.3,0,2.3,1,2.3,2.3v0.4c0,0.5,0.3,0.7,0.5,0.8c0.1,0.1,0.5,0.2,1,0l0.3-0.2c0.5-0.3,1.2-0.4,1.7-0.2
		c0.6,0.2,1.1,0.5,1.4,1.1l0.6,1.1c0.3,0.5,0.4,1.2,0.2,1.7c-0.2,0.6-0.5,1.1-1.1,1.4l-0.3,0.2c-0.4,0.2-0.5,0.7-0.5,0.8
		s0,0.6,0.5,0.8l0.3,0.2c1.1,0.6,1.5,2,0.8,3.1l-0.6,1.1c-0.3,0.5-0.8,0.9-1.4,1.1c-0.6,0.2-1.2,0.1-1.7-0.2l-0.3-0.2
		c-0.4-0.2-0.8-0.1-0.9,0c-0.1,0.1-0.5,0.3-0.5,0.8v0.4C14.9,20.4,13.9,21.4,12.6,21.4z M8.1,15.8c0.5,0,1,0.1,1.5,0.4
		c0.9,0.5,1.5,1.5,1.5,2.6v0.4c0,0.2,0.1,0.3,0.3,0.3h1.3c0.2,0,0.3-0.1,0.3-0.3v-0.4c0-1.1,0.6-2,1.5-2.6c0.9-0.5,2-0.5,2.9,0
		l0.3,0.2c0.1,0.1,0.3,0,0.4-0.1l0.6-1.1c0.1-0.1,0-0.3-0.1-0.4l-0.3-0.2c-0.9-0.5-1.5-1.5-1.5-2.6c0-1.1,0.6-2,1.5-2.6l0.3-0.2
		c0.1-0.1,0.1-0.1,0.1-0.2s0-0.1,0-0.2v0l-0.6-1.1c-0.1-0.1-0.1-0.1-0.2-0.1c0,0-0.1,0-0.2,0l-0.3,0.2c-0.9,0.5-2,0.5-3,0
		c-0.9-0.5-1.5-1.5-1.5-2.6V4.9c0-0.2-0.1-0.3-0.3-0.3h-1.3c-0.2,0-0.3,0.1-0.3,0.3v0.4c0,1.1-0.6,2-1.5,2.6c-0.9,0.5-2,0.5-2.9,0
		L6.3,7.6C6.1,7.5,6,7.6,5.9,7.7L5.2,8.8C5.1,9,5.2,9.2,5.3,9.2l0.3,0.2C6.6,10,7.2,10.9,7.2,12c0,1.1-0.6,2-1.5,2.6l-0.3,0.2
		c-0.1,0.1-0.2,0.3-0.1,0.4l0.6,1.1c0.1,0.1,0.3,0.2,0.4,0.1l0.3-0.2C7.1,15.9,7.6,15.8,8.1,15.8z"/>
</g>
</svg>
