<?xml version="1.0" encoding="utf-8"?>
<!-- Generator: Adobe Illustrator 21.0.0, SVG Export Plug-In . SVG Version: 6.00 Build 0)  -->
<svg version="1.1" id="图层_1" xmlns="http://www.w3.org/2000/svg" xmlns:xlink="http://www.w3.org/1999/xlink" x="0px" y="0px"
	 viewBox="0 0 30.3 30.3" style="enable-background:new 0 0 30.3 30.3;" xml:space="preserve">
<path d="M6.4,7.7c0-0.6,0.5-1.1,1.1-1.1h6.8c0.3,0,0.6,0.1,0.8,0.3l8.8,8.8c0.4,0.4,0.4,1.1,0,1.6l-6.8,6.8c-0.4,0.4-1.1,0.4-1.6,0
	l-8.8-8.8c-0.2-0.2-0.3-0.5-0.3-0.8V7.7z M7.5,4.4c-1.8,0-3.3,1.5-3.3,3.3v6.8c0,0.9,0.3,1.7,1,2.3l8.8,8.8c1.3,1.3,3.4,1.3,4.7,0
	l6.8-6.8c1.3-1.3,1.3-3.4,0-4.7l-8.8-8.8c-0.6-0.6-1.5-1-2.3-1H7.5z M10.8,13.2c1.2,0,2.2-1,2.2-2.2s-1-2.2-2.2-2.2s-2.2,1-2.2,2.2
	S9.6,13.2,10.8,13.2z"/>
</svg>
